<?xml version="1.0" encoding="utf-8"?>
<!-- Generator: Adobe Illustrator 16.0.0, SVG Export Plug-In . SVG Version: 6.00 Build 0)  -->
<!DOCTYPE svg PUBLIC "-//W3C//DTD SVG 1.1//EN" "http://www.w3.org/Graphics/SVG/1.1/DTD/svg11.dtd">
<svg version="1.1" id="Capa_1" xmlns="http://www.w3.org/2000/svg" xmlns:xlink="http://www.w3.org/1999/xlink" x="0px" y="0px"
	 width="2610px" height="250px" viewBox="-1174.5 -112.5 2610 250" enable-background="new -1174.5 -112.5 2610 250"
	 xml:space="preserve">
<g>
	<path fill="#575756" d="M-1172.43,13.432c0-49.43,29.032-81.564,80.335-81.564c28.417,0,42.017,6.175,45.724,8.029l-4.936,14.213
		c-6.185-1.854-17.921-6.799-40.173-6.799c-32.759,0-61.791,17.92-61.791,63.654c0,46.963,30.281,66.736,66.122,66.736
		c14.828,0,28.417-3.082,37.07-5.561l4.332,14.818c-6.185,2.479-19.16,6.81-45.119,6.81
		C-1142.764,93.144-1172.43,59.78-1172.43,13.432z"/>
	<path fill="#575756" d="M-1015.475-66.279h18.525V4.165h86.53v-70.444h18.525V90.685h-18.525V19.627h-86.53V91.31h-18.525V-66.279z
		"/>
	<path fill="#575756" d="M-843.059-66.279h18.525V90.685h-18.525V-66.279z"/>
	<path fill="#575756" d="M-775.093-66.279h18.545V75.232h68.6V91.3h-86.521V-66.279H-775.093z"/>
	<path fill="#575756" d="M-663.247-66.279h88.374v14.828h-69.829V4.155h64.874v14.837h-64.874v56.23h74.765v14.828h-93.31V-66.279
		L-663.247-66.279z"/>
	<path fill="#575756" d="M-493.298-66.279h24.71l56.844,156.964h-19.764l-20.398-58.708h-62.415l-22.867,58.708h-18.525
		L-493.298-66.279z M-457.457,17.139l-24.73-71.058l-27.188,71.058H-457.457z"/>
	<path fill="#575756" d="M-384.545-66.279h25.949l80.336,141.512l-0.615-19.774V-66.279h18.525V90.685h-28.417l-78.472-139.648
		l0.614,16.047V90.685h-18.545V-66.279H-384.545L-384.545-66.279z"/>
</g>
<g>
	<path fill="#3F2766" d="M-178.161,13.432c0-53.752,30.281-81.564,85.282-81.564c24.73,0,36.466,4.946,46.348,8.644l-8.029,22.866
		c-12.37-3.092-19.784-6.175-38.319-6.175c-29.656,0-53.752,15.452-53.752,54.376c0,39.539,25.949,56.854,57.459,56.854
		c6.79,0,11.726-0.634,16.058-1.238V14.047h30.281v71.683c-16.067,5.57-30.281,8.643-50.045,8.643
		C-145.402,93.144-178.161,64.726-178.161,13.432z"/>
	<path fill="#3F2766" d="M71.5,61.644L49.238,32.592c-3.083,0.614-7.414,0.614-11.121,0.614H22.674v57.479H-7.597V-66.279h57.459
		c33.383,0,56.854,15.443,56.854,49.44c0,17.92-8.643,33.987-27.198,42.631l19.169,24.115c9.268,11.111,19.774,16.672,33.363,20.389
		l-6.799,23.491C103.634,92.538,86.328,80.783,71.5,61.644z M39.365,10.964c22.867,0,35.841-8.653,35.841-27.198
		c0-19.159-8.663-26.573-30.281-26.573H22.674v53.762h16.691V10.964z"/>
	<path fill="#3F2766" d="M199.412-66.279h39.549l54.376,156.964h-31.529l-17.296-50.669h-56.221l-19.159,50.669h-30.291
		L199.412-66.279z M237.107,17.139l-19.16-64.268l-21.618,64.268H237.107z"/>
	<path fill="#3F2766" d="M316.204-66.279h57.459c34.007,0,56.854,19.16,56.854,53.147c0,29.656-22.848,54.991-68.581,54.991h-10.516
		V17.754h11.745c24.096,0,35.822-11.736,35.822-30.281c0-19.15-8.624-30.271-30.262-30.271h-22.242V90.685h-30.28V-66.279
		L316.204-66.279z"/>
	<path fill="#3F2766" d="M454.613-66.279h97.632v24.105h-67.352V0.458h62.415v22.867h-62.415v43.88h72.288V91.31H454.613V-66.279
		L454.613-66.279z"/>
	<path fill="#3F2766" d="M630.718,13.432c0-53.752,30.28-81.564,85.281-81.564c24.739,0,36.466,4.946,46.357,8.644l-8.038,22.866
		c-12.351-3.092-19.765-6.175-38.319-6.175c-29.656,0-53.752,15.452-53.752,54.376c0,39.539,25.949,56.854,56.854,56.854
		c6.789,0,11.745-0.634,16.057-1.238V14.047h30.281v71.683c-16.058,5.57-30.281,8.643-50.064,8.643
		C662.871,93.144,630.718,64.726,630.718,13.432z"/>
	<path fill="#3F2766" d="M879.772,61.644l-22.262-29.052c-3.083,0.614-7.414,0.614-11.121,0.614h-15.453v57.479h-30.261V-66.279
		h57.459c33.383,0,56.854,15.443,56.854,49.44c0,17.92-8.663,33.987-27.198,42.631l19.16,24.115
		c9.268,11.111,19.783,16.672,33.363,20.389l-6.79,23.491C912.512,92.538,895.225,80.783,879.772,61.644z M848.243,10.964
		c22.866,0,35.86-8.653,35.86-27.198c0-19.159-8.662-26.573-30.28-26.573h-22.262v53.762h16.682V10.964z"/>
	<path fill="#3F2766" d="M948.353,11.579c0-49.44,32.739-80.95,84.657-80.95c55.001,0,79.702,34.602,79.702,80.95
		c0,49.43-30.242,80.959-84.014,80.959C976.155,93.144,948.353,61.644,948.353,11.579z M1081.826,12.203
		c0-32.758-16.682-56.854-50.67-56.854c-35.841,0-51.898,24.105-51.898,56.23c0,31.51,15.453,57.459,50.045,57.459
		C1066.373,69.048,1081.826,44.337,1081.826,12.203z"/>
	<path fill="#3F2766" d="M1142.407,30.123v-96.402h30.886v95.164c0,27.813,14.828,39.548,38.318,39.548
		c24.077,0,38.925-12.984,38.925-44.504v-90.218h29.656v91.457c0,53.138-35.842,69.204-68.581,69.204
		C1177.604,93.768,1142.407,78.939,1142.407,30.123z"/>
	<path fill="#3F2766" d="M1319.116-66.279h57.459c34.008,0,56.854,19.16,56.854,53.147c0,29.656-22.847,54.991-68.58,54.991h-10.517
		V17.754h11.745c24.097,0,35.842-11.736,35.842-30.281c0-19.15-8.644-30.271-30.262-30.271h-22.262V90.685h-30.28V-66.279
		L1319.116-66.279z"/>
</g>
</svg>
